SRRun01_grf
version=1
nRows=34
nColumns=19
inDegrees=no
endheader
time	ground_force_r_vx	ground_force_r_vy	ground_force_r_vz	ground_force_r_px	ground_force_r_py	ground_force_r_pz	ground_force_r_mx	ground_force_r_my	ground_force_r_mz	ground_force_l_vx	ground_force_l_vy	ground_force_l_vz	ground_force_l_px	ground_force_l_py	ground_force_l_pz	ground_force_l_mx	ground_force_l_my	ground_force_l_mz
    144.99800000	     -0.95631836	     34.15583804	     19.98758901	      1.45186091	      0.00000000	     -0.16139061	     -0.00000005	     -9.71180396	      0.00000053	      0.00000000	      0.00000000	      0.00000000	      0.00000000	      0.00000000	      0.00000000	      0.00000000	      0.00000000	      0.00000000
    144.99900000	     -8.76787697	     59.72021535	     16.37259633	      1.42233444	      0.00000000	     -0.16870286	      0.00000021	    -13.14354715	      0.00000249	      0.00000000	      0.00000000	      0.00000000	      0.00000000	      0.00000000	      0.00000000	      0.00000000	      0.00000000	      0.00000000
    145.00000000	    -16.58015211	     86.75702346	     12.05129870	      1.39398553	      0.00000000	     -0.17606668	      0.00000049	    -16.59435032	      0.00000443	      0.00000000	      0.00000000	      0.00000000	      0.00000000	      0.00000000	      0.00000000	      0.00000000	      0.00000000	      0.00000000
    145.00100000	    -24.49541342	    115.31052833	      6.72659348	      1.36782824	      0.00000000	     -0.18334810	      0.00000077	    -19.91456967	      0.00000631	      0.00000000	      0.00000000	      0.00000000	      0.00000000	      0.00000000	      0.00000000	      0.00000000	      0.00000000	      0.00000000
    145.00200000	    -32.67375094	    145.46829463	      0.12325574	      1.34467612	      0.00000000	     -0.19041709	      0.00000105	    -22.92128686	      0.00000808	      0.00000000	      0.00000000	      0.00000000	      0.00000000	      0.00000000	      0.00000000	      0.00000000	      0.00000000	      0.00000000
    145.00300000	    -41.31609063	    177.33477590	     -7.98417602	      1.32508527	      0.00000000	     -0.19715220	      0.00000134	    -25.40505138	      0.00000974	      0.00000000	      0.00000000	      0.00000000	      0.00000000	      0.00000000	      0.00000000	      0.00000000	      0.00000000	      0.00000000
    145.00400000	    -50.63868889	    210.99526128	    -17.74686982	      1.30933073	      0.00000000	     -0.20344354	      0.00000164	    -27.14204002	      0.00001134	      0.00000000	      0.00000000	      0.00000000	      0.00000000	      0.00000000	      0.00000000	      0.00000000	      0.00000000	      0.00000000
    145.00500000	    -60.83997391	    246.47592199	    -29.22287919	      1.29741565	      0.00000000	     -0.20919556	      0.00000194	    -27.91101012	      0.00001291	      0.00000000	      0.00000000	      0.00000000	      0.00000000	      0.00000000	      0.00000000	      0.00000000	      0.00000000	      0.00000000
    145.00600000	    -72.06166775	    283.70717749	    -42.36560716	      1.28910863	      0.00000000	     -0.21433149	      0.00000224	    -27.51358223	      0.00001456	      0.00000000	      0.00000000	      0.00000000	      0.00000000	      0.00000000	      0.00000000	      0.00000000	      0.00000000	      0.00000000
    145.00700000	    -84.34747582	    322.49730140	    -57.01992493	      1.28400046	      0.00000000	     -0.21879945	      0.00000255	    -25.79584208	      0.00001636	      0.00000000	      0.00000000	      0.00000000	      0.00000000	      0.00000000	      0.00000000	      0.00000000	      0.00000000	      0.00000000
    145.00800000	    -97.60402757	    362.52114010	    -72.92512341	      1.28156984	      0.00000000	     -0.22257853	      0.00000286	    -22.66904353	      0.00001842	      0.00000000	      0.00000000	      0.00000000	      0.00000000	      0.00000000	      0.00000000	      0.00000000	      0.00000000	      0.00000000
    145.00900000	   -111.56981662	    403.32578245	    -89.72332097	      1.28124748	      0.00000000	     -0.22568179	      0.00000317	    -18.12721556	      0.00002082	      0.00000000	      0.00000000	      0.00000000	      0.00000000	      0.00000000	      0.00000000	      0.00000000	      0.00000000	      0.00000000
    145.01000000	   -125.79815402	    444.35203331	   -106.97226939	      1.28246982	      0.00000000	     -0.22815475	      0.00000351	    -12.25962824	      0.00002361	      0.00000000	      0.00000000	      0.00000000	      0.00000000	      0.00000000	      0.00000000	      0.00000000	      0.00000000	      0.00000000
    145.01100000	   -139.65927466	    484.96833807	   -124.16226829	      1.28471677	      0.00000000	     -0.23006921	      0.00000385	     -5.25635288	      0.00002681	      0.00000000	      0.00000000	      0.00000000	      0.00000000	      0.00000000	      0.00000000	      0.00000000	      0.00000000	      0.00000000
    145.01200000	   -152.36473962	    524.51255101	   -140.73738439	      1.28753251	      0.00000000	     -0.23151413	      0.00000423	      2.59441961	      0.00003039	      0.00000000	      0.00000000	      0.00000000	      0.00000000	      0.00000000	      0.00000000	      0.00000000	      0.00000000	      0.00000000
    145.01300000	   -163.01454415	    562.33650313	   -156.12092353	      1.29053143	      0.00000000	     -0.23258593	      0.00000463	     10.91802176	      0.00003425	      0.00000000	      0.00000000	      0.00000000	      0.00000000	      0.00000000	      0.00000000	      0.00000000	      0.00000000	      0.00000000
    145.01400000	   -170.66439432	    597.84859457	   -169.74429548	      1.29339433	      0.00000000	     -0.23337987	      0.00000506	     19.27383652	      0.00003827	      0.00000000	      0.00000000	      0.00000000	      0.00000000	      0.00000000	      0.00000000	      0.00000000	      0.00000000	      0.00000000
    145.01500000	   -174.40782141	    630.55054762	   -181.07762922	      1.29586025	      0.00000000	     -0.23398350	      0.00000553	     27.18375596	      0.00004229	      0.00000000	      0.00000000	      0.00000000	      0.00000000	      0.00000000	      0.00000000	      0.00000000	      0.00000000	      0.00000000
    145.01600000	   -173.46541669	    660.06587904	   -189.66015796	      1.29771906	      0.00000000	     -0.23447241	      0.00000605	     34.16675532	      0.00004613	      0.00000000	      0.00000000	      0.00000000	      0.00000000	      0.00000000	      0.00000000	      0.00000000	      0.00000000	      0.00000000
    145.01700000	   -167.27188266	    686.15923254	   -195.12841556	      1.29880831	      0.00000000	     -0.23490798	      0.00000660	     39.77691820	      0.00004960	      0.00000000	      0.00000000	      0.00000000	      0.00000000	      0.00000000	      0.00000000	      0.00000000	      0.00000000	      0.00000000
    145.01800000	   -155.55125373	    708.74690822	   -197.24029882	      1.29901534	      0.00000000	     -0.23533664	      0.00000719	     43.64146717	      0.00005256	      0.00000000	      0.00000000	      0.00000000	      0.00000000	      0.00000000	      0.00000000	      0.00000000	      0.00000000	      0.00000000
    145.01900000	   -138.37168547	    727.89943347	   -195.89290582	      1.29828307	      0.00000000	     -0.23579013	      0.00000781	     45.49484785	      0.00005489	      0.00000000	      0.00000000	      0.00000000	      0.00000000	      0.00000000	      0.00000000	      0.00000000	      0.00000000	      0.00000000
    145.02000000	   -116.17332942	    743.83696662	   -191.13207180	      1.29661591	      0.00000000	     -0.23628613	      0.00000845	     45.20498290	      0.00005654	      0.00000000	      0.00000000	      0.00000000	      0.00000000	      0.00000000	      0.00000000	      0.00000000	      0.00000000	      0.00000000
    145.02100000	    -89.76543748	    756.91805217	   -183.15210741	      1.29408185	      0.00000000	     -0.23682910	      0.00000911	     42.78854718	      0.00005753	      0.00000000	      0.00000000	      0.00000000	      0.00000000	      0.00000000	      0.00000000	      0.00000000	      0.00000000	      0.00000000
    145.02200000	    -60.29157647	    767.62195053	   -172.28544576	      1.29080784	      0.00000000	     -0.23741173	      0.00000976	     38.41335215	      0.00005793	      0.00000000	      0.00000000	      0.00000000	      0.00000000	      0.00000000	      0.00000000	      0.00000000	      0.00000000	      0.00000000
    145.02300000	    -29.16459596	    776.52441869	   -158.98324778	      1.28696718	      0.00000000	     -0.23801724	      0.00001040	     32.38735281	      0.00005789	      0.00000000	      0.00000000	      0.00000000	      0.00000000	      0.00000000	      0.00000000	      0.00000000	      0.00000000	      0.00000000
    145.02400000	      2.02418041	    784.26653619	   -143.78885661	      1.28276038	      0.00000000	     -0.23862296	      0.00001100	     25.13511657	      0.00005761	      0.00000000	      0.00000000	      0.00000000	      0.00000000	      0.00000000	      0.00000000	      0.00000000	      0.00000000	      0.00000000
    145.02500000	     31.61431627	    791.51639624	   -127.30613536	      1.27839214	      0.00000000	     -0.23920475	      0.00001156	     17.16373874	      0.00005728	      0.00000000	      0.00000000	      0.00000000	      0.00000000	      0.00000000	      0.00000000	      0.00000000	      0.00000000	      0.00000000
    145.02600000	     57.99473409	    798.92468718	   -110.16456243	      1.27404880	      0.00000000	     -0.23974136	      0.00001206	      9.02117697	      0.00005709	      0.00000000	      0.00000000	      0.00000000	      0.00000000	      0.00000000	      0.00000000	      0.00000000	      0.00000000	      0.00000000
    145.02700000	     79.72073652	    807.07730988	    -92.98301829	      1.26987993	      0.00000000	     -0.24021791	      0.00001248	      1.25071455	      0.00005718	      0.00000000	      0.00000000	      0.00000000	      0.00000000	      0.00000000	      0.00000000	      0.00000000	      0.00000000	      0.00000000
    145.02800000	     95.61923810	    816.45044366	    -76.33466014	      1.26598737	      0.00000000	     -0.24062758	      0.00001280	     -5.65434552	      0.00005762	      0.00000000	      0.00000000	      0.00000000	      0.00000000	      0.00000000	      0.00000000	      0.00000000	      0.00000000	      0.00000000
    145.02900000	    104.87320902	    827.37475784	    -60.71585357	      1.26242283	      0.00000000	     -0.24097155	      0.00001303	    -11.29159022	      0.00005839	      0.00000000	      0.00000000	      0.00000000	      0.00000000	      0.00000000	      0.00000000	      0.00000000	      0.00000000	      0.00000000
    145.03000000	    107.07838132	    840.01488791	    -46.52226711	      1.25919366	      0.00000000	     -0.24125770	      0.00001314	    -15.38209399	      0.00005942	      0.00000000	      0.00000000	      0.00000000	      0.00000000	      0.00000000	      0.00000000	      0.00000000	      0.00000000	      0.00000000
    145.03100000	    102.26768026	    854.36775506	    -34.03459469	      1.25627440	      0.00000000	     -0.24149871	      0.00001314	    -17.79141277	      0.00006053	      0.00000000	      0.00000000	      0.00000000	      0.00000000	      0.00000000	      0.00000000	      0.00000000	      0.00000000	      0.00000000
